# Blender 3.6.1
# www.blender.org
mtllib cigi.mtl
o phycigold
v 0.000000 -0.181200 1.426350
v 0.099900 -0.153300 1.463100
v 0.073050 -0.102750 1.597050
v 0.019200 -0.006300 1.698000
v 0.000000 -0.011400 1.698150
v 0.000000 -0.047700 1.676100
v 0.036900 -0.037800 1.675800
v 0.033150 0.007650 1.697550
v 0.063900 -0.010800 1.675050
v 0.038250 0.026850 1.696950
v 0.073800 0.026100 1.673850
v -0.063900 0.063000 1.672800
v -0.036900 0.090000 1.672050
v -0.073050 0.150300 1.589400
v -0.126600 0.096750 1.591050
v -0.073800 0.026100 1.673850
v -0.146100 0.023700 1.593300
v -0.036900 -0.037800 1.675800
v -0.073050 -0.102750 1.597050
v 0.000000 -0.122400 1.597650
v 0.126600 -0.049350 1.595400
v 0.146100 0.023700 1.593300
v 0.135450 0.103350 1.556100
v 0.199950 0.019650 1.457850
v 0.184200 0.124500 1.418550
v 0.073050 0.150300 1.589400
v 0.099900 0.192750 1.452750
v 0.033150 0.045900 1.696350
v 0.063900 0.063000 1.672800
v 0.019200 0.060000 1.696050
v 0.036900 0.090000 1.672050
v 0.000000 0.065100 1.695900
v 0.000000 0.099900 1.671750
v -0.019200 0.060000 1.696050
v -0.033150 0.045900 1.696350
v -0.038250 0.026850 1.696950
v -0.033150 0.007650 1.697550
v -0.063900 -0.010800 1.675050
v -0.019200 -0.006300 1.698000
v 0.173100 -0.080250 1.460850
v -0.173100 -0.110850 -1.705050
v -0.199950 -0.010950 -1.705050
v -0.173100 0.089100 -1.705050
v 0.000000 -0.210750 -1.705050
v -0.099900 -0.184050 -1.705050
v -0.099900 0.162150 -1.705050
v 0.000000 0.189000 -1.705050
v 0.173100 0.089100 -1.705050
v 0.173100 -0.110850 -1.705050
v 0.099900 -0.184050 -1.705050
v 0.199950 -0.010950 -1.705050
v 0.099900 0.162150 -1.705050
v -0.099900 -0.191550 0.182400
v -0.099900 -0.153300 1.463100
v -0.173100 -0.082050 1.401150
v 0.000000 -0.218400 0.183150
v 0.099900 -0.191550 0.182400
v 0.173100 -0.118500 0.180300
v -0.099900 -0.184050 -0.578550
v 0.000000 -0.210750 -0.578550
v 0.099900 -0.184050 -0.578550
v 0.173100 -0.110850 -0.578550
v -0.165300 0.084600 -1.092900
v -0.190950 -0.010950 -1.092900
v -0.199950 -0.010950 -0.578550
v -0.173100 -0.110850 -0.578550
v -0.165300 -0.106350 -1.092900
v -0.095400 -0.176250 -1.092900
v 0.000000 -0.201750 -1.092900
v 0.095400 -0.176250 -1.092900
v 0.165300 -0.106350 -1.092900
v -0.173100 0.089100 -0.578550
v -0.199950 -0.018600 0.177300
v -0.173100 -0.118500 0.180300
v 0.099900 0.154500 0.172050
v 0.000000 0.218400 1.414350
v 0.000000 0.181200 0.171300
v 0.099900 0.162150 -0.578550
v 0.000000 0.189000 -0.578550
v -0.099900 0.154500 0.172050
v -0.099900 0.162150 -0.578550
v -0.173100 0.081300 0.174300
v -0.173100 0.118950 1.432800
v -0.199950 0.019650 1.457850
v -0.099900 0.192750 1.452750
v 0.199950 -0.010950 -0.578550
v 0.199950 -0.018600 0.177300
v 0.179850 0.084900 0.174150
v 0.177150 0.091200 -0.578550
v 0.167400 0.085650 -1.092900
v 0.095400 0.154500 -1.092900
v 0.000000 0.180000 -1.092900
v -0.095400 0.154500 -1.092900
v 0.190950 -0.010950 -1.092900
v 0.000000 0.027000 1.705050
v -0.126600 -0.057450 1.612500
v 0.000000 0.170250 1.602750
vn 0.1204 -0.9206 0.3715
vn 0.1439 -0.5141 0.8456
vn 0.1441 -0.5135 0.8459
vn 0.1443 -0.5138 0.8457
vn 0.1444 -0.5135 0.8458
vn 0.3940 -0.3691 0.8417
vn 0.3941 -0.3692 0.8417
vn 0.3941 -0.3690 0.8417
vn 0.3943 -0.3690 0.8416
vn 0.5383 -0.1196 0.8342
vn -0.5348 0.5539 0.6381
vn -0.5347 0.5540 0.6381
vn -0.5348 0.5541 0.6379
vn -0.5348 0.5540 0.6380
vn -0.7306 0.2156 0.6479
vn -0.7305 0.2157 0.6480
vn -0.7306 0.2155 0.6479
vn -0.7307 0.2154 0.6479
vn -0.1956 -0.7107 0.6758
vn -0.1955 -0.7107 0.6758
vn 0.1956 -0.7107 0.6757
vn 0.1956 -0.7108 0.6757
vn 0.1955 -0.7108 0.6757
vn 0.1956 -0.7107 0.6758
vn 0.5352 -0.5147 0.6698
vn 0.5351 -0.5148 0.6699
vn 0.5353 -0.5146 0.6698
vn 0.5353 -0.5145 0.6699
vn 0.7304 -0.1765 0.6599
vn 0.7304 -0.1763 0.6599
vn 0.7306 -0.1764 0.6597
vn 0.7307 -0.1762 0.6596
vn 0.8941 0.2683 0.3585
vn 0.8944 0.2828 0.3465
vn 0.8941 0.2684 0.3585
vn 0.6713 0.6602 0.3370
vn 0.6751 0.6546 0.3402
vn 0.6712 0.6602 0.3370
vn 0.5385 0.1690 0.8255
vn 0.5385 0.1689 0.8255
vn 0.3941 0.4189 0.8181
vn 0.3940 0.4189 0.8181
vn 0.3940 0.4187 0.8182
vn 0.1443 0.5630 0.8138
vn 0.1443 0.5629 0.8138
vn -0.1443 0.5629 0.8138
vn -0.1443 0.5630 0.8138
vn -0.3941 0.4188 0.8181
vn -0.3940 0.4189 0.8181
vn -0.3940 0.4192 0.8180
vn -0.5384 0.1690 0.8255
vn -0.5384 0.1691 0.8256
vn -0.5385 0.1690 0.8255
vn -0.5383 -0.1196 0.8342
vn -0.3939 -0.3691 0.8418
vn -0.3941 -0.3693 0.8416
vn -0.3941 -0.3690 0.8417
vn -0.3942 -0.3691 0.8417
vn -0.1442 -0.5137 0.8458
vn -0.1442 -0.5135 0.8459
vn -0.1443 -0.5141 0.8455
vn -0.1447 -0.5137 0.8457
vn 0.6606 -0.6490 0.3774
vn 0.6605 -0.6491 0.3774
vn 0.6605 -0.6490 0.3774
vn 0.6606 -0.6489 0.3775
vn 0.9017 -0.2315 0.3652
vn 0.9018 -0.2312 0.3652
vn 0.9022 -0.2305 0.3646
vn 0.9020 -0.2307 0.3648
vn -0.0000 -0.0000 -1.0000
vn -0.4986 -0.8668 0.0087
vn -0.4817 -0.8760 0.0262
vn -0.8663 -0.4993 0.0149
vn -0.0000 -0.9996 0.0299
vn -0.0000 -0.9999 0.0100
vn 0.4985 -0.8668 0.0087
vn 0.5283 -0.8487 0.0253
vn 0.8646 -0.5025 0.0050
vn 0.8663 -0.4992 0.0149
vn -0.5001 -0.8659 -0.0131
vn -0.0000 -0.9999 -0.0137
vn 0.5006 -0.8656 -0.0129
vn 0.8664 -0.4992 -0.0111
vn -0.8664 0.4994 -0.0013
vn -1.0000 -0.0002 -0.0014
vn -1.0000 0.0006 -0.0087
vn -0.8664 -0.4992 -0.0112
vn -0.8663 -0.4995 -0.0014
vn -0.5006 -0.8657 -0.0014
vn -0.0000 -1.0000 -0.0014
vn 0.5005 -0.8657 -0.0014
vn 0.8663 -0.4995 -0.0014
vn 0.4997 -0.8661 0.0147
vn 0.8660 -0.4999 0.0146
vn -0.8657 -0.5003 0.0147
vn -0.4997 -0.8661 0.0147
vn -0.0000 -0.9999 0.0147
vn -0.8659 0.5002 -0.0063
vn -1.0000 -0.0033 -0.0000
vn -0.8648 -0.5021 0.0049
vn 0.4708 0.8822 -0.0105
vn 0.4532 0.8910 -0.0265
vn 0.8666 0.4989 -0.0151
vn -0.0000 0.9996 -0.0299
vn -0.0000 1.0000 -0.0097
vn 0.4829 0.8757 -0.0051
vn -0.0000 1.0000 -0.0035
vn -0.5017 0.8650 -0.0083
vn -0.4998 0.8661 -0.0044
vn -0.8673 0.4977 -0.0049
vn -0.8664 0.4991 -0.0148
vn -0.9994 0.0348 -0.0010
vn -0.5123 0.8584 -0.0256
vn 0.9997 -0.0203 -0.0096
vn 0.9993 -0.0379 -0.0006
vn 0.9967 -0.0814 0.0024
vn 0.8678 0.4968 -0.0080
vn 0.8653 0.5012 -0.0085
vn 0.8655 0.5009 -0.0036
vn 0.4913 0.8710 -0.0024
vn -0.0000 1.0000 -0.0014
vn -0.5006 0.8657 -0.0015
vn 0.9999 -0.0124 -0.0023
vn -0.9999 -0.0002 0.0147
vn -0.8659 0.5001 0.0147
vn -0.4999 0.8660 0.0146
vn 0.0001 0.9999 0.0146
vn 0.4998 0.8660 0.0146
vn 0.8654 0.5010 0.0125
vn 0.9999 -0.0008 0.0128
vn 0.2477 -0.9162 0.3150
vn 0.2079 0.0848 0.9745
vn -0.1428 -0.9359 0.3220
vn 0.1522 0.1811 0.9716
vn -0.2415 -0.8909 0.3847
vn 0.0557 0.2369 0.9699
vn -0.7890 -0.5056 0.3491
vn -0.0557 0.2369 0.9699
vn -0.5926 -0.7748 0.2203
vn -0.1522 0.1812 0.9716
vn -0.8970 -0.3709 0.2405
vn -0.2079 0.0848 0.9745
vn -0.9197 -0.1340 0.3691
vn -0.2080 -0.0267 0.9778
vn -0.8825 0.3242 0.3407
vn -0.1522 -0.1231 0.9806
vn -0.9173 0.2552 0.3056
vn -0.0558 -0.1787 0.9823
vn -0.7167 0.6300 0.2990
vn 0.0558 -0.1787 0.9823
vn -0.6602 0.6707 0.3381
vn 0.1522 -0.1231 0.9806
vn -0.1202 0.9411 0.3160
vn 0.2080 -0.0266 0.9778
vn -0.2968 0.9252 0.2364
vn 0.7305 0.2155 0.6480
vn 0.1523 0.9576 0.2445
vn 0.7318 0.3671 0.5741
vn 0.3048 0.8909 0.3367
vn 0.5777 0.5951 0.5587
vn -0.3435 -0.6412 0.6862
vn 0.6584 0.4410 0.6099
vn -0.4550 -0.4316 0.7789
vn 0.1953 0.7500 0.6320
vn -0.7057 -0.0012 0.7085
vn 0.3062 0.6666 0.6796
vn -0.7304 -0.1763 0.6598
vn -0.1791 0.6889 0.7024
vn -0.3088 0.6990 0.6450
vt 0.608600 0.392400
vt 0.556900 0.385500
vt 0.575400 0.369700
vt 0.599900 0.348800
vt 0.608600 0.349900
vt 0.608600 0.360000
vt 0.589700 0.357500
vt 0.593500 0.345600
vt 0.575900 0.350700
vt 0.591200 0.341400
vt 0.570800 0.341400
vt 0.641200 0.332000
vt 0.627400 0.325200
vt 0.641700 0.313000
vt 0.666000 0.325000
vt 0.646300 0.341400
vt 0.674900 0.341400
vt 0.627400 0.357500
vt 0.641700 0.369700
vt 0.608600 0.374100
vt 0.551100 0.357700
vt 0.542200 0.341400
vt 0.547100 0.323300
vt 0.505200 0.341400
vt 0.513300 0.314400
vt 0.575400 0.313000
vt 0.556900 0.297200
vt 0.593500 0.337100
vt 0.575900 0.332000
vt 0.599900 0.333900
vt 0.589700 0.325200
vt 0.608600 0.332800
vt 0.608600 0.322700
vt 0.617200 0.333900
vt 0.623600 0.337100
vt 0.625900 0.341400
vt 0.623600 0.345600
vt 0.641200 0.350700
vt 0.617200 0.348800
vt 0.519000 0.366900
vt 0.738900 0.379000
vt 0.728800 0.360500
vt 0.738900 0.342000
vt 0.803800 0.397500
vt 0.766300 0.392500
vt 0.766300 0.328500
vt 0.803800 0.323500
vt 0.868700 0.342000
vt 0.868700 0.379000
vt 0.841300 0.392500
vt 0.878800 0.360500
vt 0.841300 0.328500
vt 0.619600 0.647200
vt 0.619600 0.410300
vt 0.661400 0.421300
vt 0.577900 0.417200
vt 0.577900 0.647200
vt 0.536200 0.647200
vt 0.536200 0.410300
vt 0.494400 0.647200
vt 0.494400 0.410300
vt 0.619600 0.786900
vt 0.577900 0.786900
vt 0.536200 0.786900
vt 0.494400 0.786900
vt 0.744800 0.882100
vt 0.703100 0.882100
vt 0.703100 0.786900
vt 0.661400 0.786900
vt 0.661400 0.882100
vt 0.619600 0.882100
vt 0.577900 0.882100
vt 0.536200 0.882100
vt 0.494400 0.882100
vt 0.536200 0.995300
vt 0.494400 0.995300
vt 0.661400 0.995300
vt 0.619600 0.995300
vt 0.577900 0.995300
vt 0.744800 0.786900
vt 0.703100 0.647200
vt 0.661400 0.647200
vt 0.870000 0.647200
vt 0.870000 0.410300
vt 0.911900 0.416900
vt 0.828300 0.417200
vt 0.828300 0.647200
vt 0.870000 0.786900
vt 0.828300 0.786900
vt 0.786600 0.647200
vt 0.786600 0.786900
vt 0.744800 0.647200
vt 0.744800 0.414300
vt 0.703100 0.410300
vt 0.786600 0.410300
vt 0.995200 0.786900
vt 0.953500 0.786900
vt 0.953500 0.647200
vt 0.995200 0.647200
vt 0.995200 0.410300
vt 0.953500 0.410300
vt 0.911900 0.647200
vt 0.911800 0.786900
vt 0.911800 0.882100
vt 0.870000 0.882100
vt 0.828300 0.882100
vt 0.786600 0.882100
vt 0.953500 0.882100
vt 0.703100 0.995300
vt 0.744800 0.995300
vt 0.786600 0.995300
vt 0.828300 0.995300
vt 0.870000 0.995300
vt 0.911800 0.995300
vt 0.953500 0.995300
vt 0.995200 0.995300
vt 0.995200 0.882100
vt 0.608600 0.341400
vt 0.660300 0.385500
vt 0.698200 0.366900
vt 0.666000 0.359600
vt 0.712000 0.341400
vt 0.698200 0.315900
vt 0.660300 0.297200
vt 0.608600 0.290400
vt 0.608600 0.308600
s 1
usemtl cigsshib
f 1/1/1 2/2/1 3/3/1
f 4/4/2 5/5/3 6/6/4
f 6/6/4 7/7/5 4/4/2
f 8/8/6 4/4/7 7/7/8
f 7/7/8 9/9/9 8/8/6
f 10/10/10 8/8/10 9/9/10
f 9/9/10 11/11/10 10/10/10
f 12/12/11 13/13/12 14/14/13
f 14/14/13 15/15/14 12/12/11
f 16/16/15 12/12/16 15/15/17
f 15/15/17 17/17/18 16/16/15
f 6/6/19 18/18/20 19/19/19
f 19/19/19 20/20/19 6/6/19
f 7/7/21 6/6/22 20/20/23
f 20/20/23 3/3/24 7/7/21
f 9/9/25 7/7/26 3/3/27
f 3/3/27 21/21/28 9/9/25
f 11/11/29 9/9/30 21/21/31
f 21/21/31 22/22/32 11/11/29
f 23/23/33 22/22/34 24/24/33
f 24/24/33 25/25/35 23/23/33
f 26/26/36 23/23/37 25/25/36
f 25/25/36 27/27/38 26/26/36
f 28/28/39 10/10/39 11/11/39
f 11/11/39 29/29/40 28/28/39
f 30/30/41 28/28/41 29/29/42
f 29/29/42 31/31/43 30/30/41
f 32/32/44 30/30/45 31/31/45
f 31/31/45 33/33/44 32/32/44
f 34/34/46 32/32/47 33/33/47
f 33/33/47 13/13/47 34/34/46
f 35/35/48 34/34/48 13/13/49
f 13/13/49 12/12/50 35/35/48
f 36/36/51 35/35/52 12/12/53
f 12/12/53 16/16/53 36/36/51
f 37/37/54 36/36/54 16/16/54
f 16/16/54 38/38/54 37/37/54
f 39/39/55 37/37/56 38/38/57
f 38/38/57 18/18/58 39/39/55
f 5/5/59 39/39/60 18/18/61
f 18/18/61 6/6/62 5/5/59
f 21/21/63 3/3/64 2/2/65
f 2/2/65 40/40/66 21/21/63
f 22/22/67 21/21/68 40/40/69
f 40/40/69 24/24/70 22/22/67
f 41/41/71 42/42/71 43/43/71
f 44/44/71 41/41/71 43/43/71
f 44/44/71 45/45/71 41/41/71
f 43/43/71 46/46/71 47/47/71
f 43/43/71 47/47/71 48/48/71
f 44/44/71 43/43/71 48/48/71
f 49/49/71 44/44/71 48/48/71
f 49/49/71 50/50/71 44/44/71
f 51/51/71 49/49/71 48/48/71
f 47/47/71 52/52/71 48/48/71
f 53/53/72 54/54/73 55/55/74
f 1/56/75 54/54/73 53/53/72
f 53/53/72 56/57/76 1/56/75
f 1/56/75 56/57/76 57/58/77
f 57/58/77 2/59/78 1/56/75
f 2/59/78 57/58/77 58/60/79
f 58/60/79 40/61/80 2/59/78
f 59/62/81 60/63/82 56/57/76
f 57/58/77 56/57/76 60/63/82
f 60/63/82 61/64/83 57/58/77
f 58/60/79 57/58/77 61/64/83
f 61/64/83 62/65/84 58/60/79
f 63/66/85 64/67/86 65/68/87
f 66/69/88 65/68/87 64/67/86
f 64/67/86 67/70/89 66/69/88
f 59/62/81 66/69/88 67/70/89
f 67/70/89 68/71/90 59/62/81
f 60/63/82 59/62/81 68/71/90
f 68/71/90 69/72/91 60/63/82
f 61/64/83 60/63/82 69/72/91
f 69/72/91 70/73/92 61/64/83
f 62/65/84 61/64/83 70/73/92
f 70/73/92 71/74/93 62/65/84
f 71/74/93 70/73/92 50/75/94
f 50/75/94 49/76/95 71/74/93
f 68/71/90 67/70/89 41/77/96
f 41/77/96 45/78/97 68/71/90
f 69/72/91 68/71/90 45/78/97
f 45/78/97 44/79/98 69/72/91
f 70/73/92 69/72/91 44/79/98
f 44/79/98 50/75/94 70/73/92
f 72/80/99 65/68/87 73/81/100
f 74/82/101 73/81/100 65/68/87
f 65/68/87 66/69/88 74/82/101
f 75/83/102 27/84/103 25/85/104
f 76/86/105 27/84/103 75/83/102
f 75/83/102 77/87/106 76/86/105
f 77/87/106 75/83/102 78/88/107
f 78/88/107 79/89/108 77/87/106
f 80/90/109 77/87/106 79/89/108
f 79/89/108 81/91/110 80/90/109
f 82/92/111 80/90/109 81/91/110
f 81/91/110 72/80/99 82/92/111
f 73/81/100 82/92/111 72/80/99
f 83/93/112 82/92/111 73/81/100
f 73/81/100 84/94/113 83/93/112
f 55/55/74 84/94/113 73/81/100
f 73/81/100 74/82/101 55/55/74
f 55/55/74 74/82/101 53/53/72
f 53/53/72 74/82/101 66/69/88
f 66/69/88 59/62/81 53/53/72
f 56/57/76 53/53/72 59/62/81
f 76/86/105 77/87/106 80/90/109
f 80/90/109 85/95/114 76/86/105
f 83/93/112 85/95/114 80/90/109
f 80/90/109 82/92/111 83/93/112
f 62/96/84 86/97/115 87/98/116
f 87/98/116 58/99/79 62/96/84
f 40/100/80 58/99/79 87/98/116
f 87/98/116 24/101/117 40/100/80
f 25/85/104 24/101/117 87/98/116
f 87/98/116 88/102/118 25/85/104
f 25/85/104 88/102/118 75/83/102
f 75/83/102 88/102/118 89/103/119
f 89/103/119 78/88/107 75/83/102
f 78/88/107 89/103/119 90/104/120
f 90/104/120 91/105/121 78/88/107
f 79/89/108 78/88/107 91/105/121
f 91/105/121 92/106/122 79/89/108
f 81/91/110 79/89/108 92/106/122
f 92/106/122 93/107/123 81/91/110
f 72/80/99 81/91/110 93/107/123
f 93/107/123 63/66/85 72/80/99
f 65/68/87 72/80/99 63/66/85
f 94/108/124 90/104/120 89/103/119
f 89/103/119 86/97/115 94/108/124
f 86/97/115 89/103/119 88/102/118
f 88/102/118 87/98/116 86/97/115
f 42/109/125 41/77/96 67/70/89
f 67/70/89 64/67/86 42/109/125
f 43/110/126 42/109/125 64/67/86
f 64/67/86 63/66/85 43/110/126
f 46/111/127 43/110/126 63/66/85
f 63/66/85 93/107/123 46/111/127
f 47/112/128 46/111/127 93/107/123
f 93/107/123 92/106/122 47/112/128
f 52/113/129 47/112/128 92/106/122
f 92/106/122 91/105/121 52/113/129
f 48/114/130 52/113/129 91/105/121
f 91/105/121 90/104/120 48/114/130
f 51/115/131 48/114/130 90/104/120
f 90/104/120 94/108/124 51/115/131
f 49/116/95 51/115/131 94/108/124
f 94/108/124 71/117/93 49/116/95
f 71/117/93 94/108/124 86/97/115
f 86/97/115 62/96/84 71/117/93
f 3/3/132 20/20/132 1/1/132
f 10/10/133 28/28/133 95/118/133
f 54/119/134 1/1/134 20/20/134
f 28/28/135 30/30/135 95/118/135
f 20/20/136 19/19/136 54/119/136
f 30/30/137 32/32/137 95/118/137
f 55/120/138 54/119/138 19/19/138
f 32/32/139 34/34/139 95/118/139
f 19/19/140 96/121/140 55/120/140
f 34/34/141 35/35/141 95/118/141
f 84/122/142 55/120/142 96/121/142
f 35/35/143 36/36/143 95/118/143
f 96/121/144 17/17/144 84/122/144
f 36/36/145 37/37/145 95/118/145
f 83/123/146 84/122/146 17/17/146
f 37/37/147 39/39/147 95/118/147
f 17/17/148 15/15/148 83/123/148
f 39/39/149 5/5/149 95/118/149
f 85/124/150 83/123/150 15/15/150
f 5/5/151 4/4/151 95/118/151
f 15/15/152 14/14/152 85/124/152
f 4/4/153 8/8/153 95/118/153
f 76/125/154 85/124/154 14/14/154
f 8/8/155 10/10/155 95/118/155
f 14/14/156 97/126/156 76/125/156
f 29/29/157 11/11/157 22/22/157
f 27/27/158 76/125/158 97/126/158
f 22/22/159 23/23/159 29/29/159
f 97/126/160 26/26/160 27/27/160
f 31/31/161 29/29/161 23/23/161
f 96/121/162 19/19/162 18/18/162
f 23/23/163 26/26/163 31/31/163
f 18/18/164 38/38/164 96/121/164
f 33/33/165 31/31/165 26/26/165
f 17/17/166 96/121/166 38/38/166
f 26/26/167 97/126/167 33/33/167
f 38/38/168 16/16/168 17/17/168
f 13/13/169 33/33/169 97/126/169
f 97/126/170 14/14/170 13/13/170
