# Blender 3.6.1
# www.blender.org
mtllib medal.mtl
o Circle
v -1.420583 4.132365 -0.089633
v -0.113155 2.719426 0.089602
v -1.420584 4.132366 0.089592
v -0.113155 2.719425 -0.089623
v 2.438861 0.792427 0.000004
v 0.714883 0.232280 0.473497
v 0.951056 -0.309020 0.000004
v 0.714882 -0.232280 0.473499
v 0.441820 -0.608116 0.473500
v 1.507292 -2.074621 0.000013
v -0.714886 -0.232276 0.473495
v -0.441826 -0.608114 0.473497
v -0.000004 -0.751672 0.473499
v 0.441823 0.608118 0.473496
v -0.441823 0.608120 0.473493
v -0.714885 0.232284 0.473493
v 0.000001 0.751676 0.473494
v -0.000003 -1.000000 0.000004
v -1.507304 -2.074614 0.000004
v -0.951057 -0.309014 -0.000002
v 0.587787 0.809015 -0.000001
v -0.587783 0.809019 -0.000005
v -2.438857 0.792440 -0.000010
v 0.000007 2.564368 -0.000010
v -0.113154 3.117354 0.089600
v -1.420582 4.739327 0.089590
v -1.420583 4.517066 0.089591
v 0.113172 3.117353 0.089601
v -0.113153 3.575104 0.089598
v -1.420581 4.961587 0.089589
v 1.420612 5.406100 0.089596
v 1.420612 5.465922 0.089595
v 0.113179 5.465925 0.089592
v 0.113178 4.948353 0.089594
v -0.113147 5.465926 0.089591
v -0.113148 4.948353 0.089593
v -1.420580 5.465931 0.089587
v -1.420580 5.406109 0.089587
v -0.113150 4.490603 0.089595
v -1.420581 5.183848 0.089588
v -0.113151 4.032854 0.089597
v 0.113173 3.575103 0.089599
v 1.420609 4.517057 0.089599
v 1.420608 4.132357 0.089601
v 0.113171 2.719425 0.089602
v 1.420610 4.739318 0.089598
v 0.113175 4.032853 0.089597
v 0.113176 4.490603 0.089595
v 1.420611 5.183839 0.089597
v 1.420611 4.961578 0.089597
v 0.113171 2.719424 -0.089623
v 1.420610 4.517056 -0.089626
v 1.420609 4.132356 -0.089624
v 0.113178 4.948352 -0.089631
v 0.113180 5.465925 -0.089633
v 1.420613 5.465921 -0.089630
v 1.420612 5.406099 -0.089629
v 0.113177 4.490602 -0.089630
v 1.420612 5.183838 -0.089628
v 0.113175 4.032853 -0.089628
v 1.420611 4.961577 -0.089628
v 0.113174 3.575102 -0.089626
v 1.420610 4.739317 -0.089627
v 0.113173 3.117352 -0.089624
v -0.113153 3.117353 -0.089625
v -1.420582 4.517065 -0.089634
v -0.113152 3.575103 -0.089627
v -1.420582 4.739326 -0.089635
v -0.113151 4.032853 -0.089628
v -0.113149 4.490603 -0.089630
v -0.113148 4.948353 -0.089632
v -0.113146 5.465925 -0.089634
v -1.420581 4.961586 -0.089636
v -1.420580 5.183847 -0.089637
v -1.420580 5.406108 -0.089638
v -1.420579 5.465930 -0.089638
v 0.150039 5.474365 -0.118822
v 1.883333 6.289793 -0.118820
v 1.883331 5.474361 -0.118817
v 0.150041 6.289798 -0.118826
v -0.150005 5.474366 -0.118823
v -0.150003 6.289799 -0.118827
v -1.883297 5.474372 -0.118829
v -1.883295 6.289804 -0.118832
v 0.136131 2.466553 -0.000009
v 0.223525 2.523957 -0.051202
v 0.238519 2.508963 -0.000009
v 0.136132 2.487758 -0.051203
v -0.136116 2.487759 -0.051203
v -0.136116 2.538952 -0.072409
v 0.187325 2.560156 -0.072408
v 0.136132 2.538951 -0.072408
v -0.136116 2.590146 -0.051204
v -0.151110 2.596357 -0.051204
v -0.187309 2.560157 -0.072409
v -0.223509 2.523958 -0.051204
v -0.136117 2.466554 -0.000010
v 0.136131 2.487759 0.051184
v 0.223524 2.523957 0.051185
v 0.280929 2.611350 -0.000010
v 0.259724 2.611351 0.051184
v 0.259724 2.611350 -0.051203
v 0.208531 2.611350 -0.072408
v 0.157337 2.611350 -0.051203
v 0.151126 2.596356 -0.051203
v 0.136132 2.590145 -0.051203
v -0.136116 2.611351 -0.000011
v -0.157321 2.611351 -0.051204
v -0.208515 2.611351 -0.072409
v -0.259708 2.611351 -0.051204
v -0.238503 2.508965 -0.000011
v -0.136117 2.487760 0.051184
v 0.136131 2.538952 0.072389
v 0.187324 2.560157 0.072389
v 0.208531 2.611351 0.072389
v 0.259725 2.929829 -0.051204
v 0.280930 2.929829 -0.000011
v 0.259725 2.929830 0.051183
v 0.208532 2.929830 0.072388
v -0.223510 2.523959 0.051183
v -0.136117 2.538953 0.072388
v 0.136132 2.590146 0.051184
v 0.151126 2.596357 0.051184
v 0.157337 2.611351 0.051184
v 0.157338 2.929830 0.051183
v 0.136132 2.611351 -0.000010
v 0.136133 2.929830 -0.000011
v 0.157338 2.929829 -0.051204
v 0.208532 2.929829 -0.072409
v -0.136116 2.590147 0.051183
v -0.187310 2.560158 0.072388
v -0.151110 2.596358 0.051183
v -0.208515 2.611352 0.072388
v -0.259708 2.611352 0.051183
v -0.280913 2.611352 -0.000011
v -0.157321 2.611352 0.051183
v -0.280912 2.929831 -0.000013
v -0.259707 2.929831 -0.051205
v -0.259707 2.929831 0.051182
v -0.208514 2.929831 0.072387
v -0.157320 2.929831 0.051182
v -0.136115 2.929831 -0.000012
v -0.157320 2.929830 -0.051205
v -0.208514 2.929830 -0.072410
v -0.150006 5.474367 0.118780
v -1.883298 5.474373 0.118774
v 0.150038 5.474366 0.118781
v 1.883330 5.474362 0.118786
v 0.150041 6.289799 0.118777
v 1.883332 6.289794 0.118783
v -0.150003 6.289800 0.118776
v -1.883296 6.289805 0.118771
vn -0.7340 -0.6792 -0.0000
vn 0.3780 -0.5106 0.7723
vn 0.6145 -0.3502 0.7069
vn 0.6488 -0.2108 0.7311
vn 0.8423 -0.2737 0.4645
vn 0.7030 -0.0779 0.7069
vn 0.6059 0.1909 0.7723
vn -0.0000 -0.0000 1.0000
vn -0.0000 -0.0000 -1.0000
vn 0.1866 -0.9824 -0.0000
vn 0.5294 -0.5294 -0.6630
vn 0.7071 -0.7071 -0.0000
vn 0.1448 -0.7194 -0.6794
vn -0.1448 -0.7194 -0.6794
vn -0.0196 -0.0473 -0.9987
vn 0.0671 -0.0671 -0.9955
vn 0.0196 -0.0473 -0.9987
vn 0.1363 0.6737 -0.7263
vn 0.4617 0.4617 -0.7574
vn -0.0671 -0.0671 -0.9955
vn -0.5294 -0.5294 -0.6630
vn -0.1866 -0.9824 -0.0000
vn 0.1448 -0.7194 0.6794
vn 0.5293 -0.5294 0.6630
vn 0.9824 -0.1866 -0.0000
vn 0.7194 -0.1448 0.6794
vn 0.7194 -0.1448 -0.6794
vn 0.0473 -0.0196 -0.9987
vn -0.6737 0.1363 -0.7263
vn -0.4617 0.4617 -0.7574
vn -0.1363 0.6737 -0.7263
vn 0.7071 0.7071 -0.0000
vn 0.6737 0.1363 -0.7263
vn -0.0473 -0.0196 -0.9987
vn -0.7194 -0.1448 -0.6794
vn -0.7071 -0.7071 -0.0000
vn -0.1448 -0.7194 0.6794
vn 0.0196 -0.0473 0.9987
vn 0.0671 -0.0671 0.9955
vn 0.0473 -0.0196 0.9987
vn 0.7071 -0.0000 -0.7071
vn 1.0000 -0.0000 -0.0000
vn 0.7071 -0.0000 0.7071
vn -0.5294 -0.5293 0.6630
vn -0.0196 -0.0473 0.9987
vn -0.1363 0.6737 0.7263
vn -0.4617 0.4617 0.7574
vn -0.6737 0.1363 0.7263
vn -0.7071 -0.0000 0.7071
vn -0.7071 0.7071 -0.0000
vn -1.0000 -0.0000 -0.0000
vn -0.7071 -0.0000 -0.7071
vn 0.1363 0.6737 0.7263
vn -0.0671 -0.0671 0.9955
vn 0.4617 0.4617 0.7574
vn -0.0473 -0.0196 0.9987
vn -0.7194 -0.1448 0.6794
vn -0.9824 -0.1866 -0.0000
vn 0.6737 0.1363 0.7263
vn -0.0000 -0.9606 0.2778
vn 0.4010 0.5519 0.7311
vn 0.6024 0.2017 0.7723
vn 0.5230 0.4762 0.7069
vn 0.5205 0.7165 0.4645
vn 0.2913 0.6446 0.7069
vn 0.0057 0.6353 0.7723
vn -0.0057 0.6353 0.7723
vn -0.2913 0.6446 0.7069
vn -0.4010 0.5519 0.7311
vn -0.5205 0.7165 0.4644
vn -0.5230 0.4762 0.7069
vn -0.6024 0.2017 0.7723
vn 0.7340 -0.6792 -0.0000
vn -0.0182 -0.9998 -0.0000
vn -0.0000 1.0000 -0.0000
vn -0.6059 0.1909 0.7723
vn -0.7030 -0.0779 0.7069
vn -0.6488 -0.2108 0.7311
vn -0.8423 -0.2737 0.4645
vn -0.6145 -0.3502 0.7069
vn -0.3780 -0.5106 0.7723
vn 0.0182 -0.9998 -0.0000
vn -0.0000 -0.9606 -0.2778
vn -0.0000 -1.0000 -0.0000
vn -0.3688 -0.5173 0.7723
vn -0.1432 -0.6927 0.7069
vn -0.0000 -0.6822 0.7311
vn -0.0000 -0.8856 0.4645
vn 0.1432 -0.6927 0.7069
vn 0.3688 -0.5173 0.7723
vt 0.082870 0.672333
vt 0.260524 0.696687
vt 0.082870 0.696687
vt 0.260524 0.672333
vt 0.950966 0.454203
vt 0.682887 0.367099
vt 0.719612 0.282927
vt 0.682887 0.294859
vt 0.640426 0.236417
vt 0.806108 0.008375
vt 0.460557 0.294859
vt 0.503018 0.236417
vt 0.571722 0.214093
vt 0.640426 0.425542
vt 0.503018 0.425542
vt 0.460557 0.367099
vt 0.571722 0.447865
vt 0.047345 0.109690
vt 0.031582 0.098453
vt 0.037399 0.116916
vt 0.057290 0.116916
vt 0.063107 0.098453
vt 0.053491 0.128607
vt 0.041198 0.128607
vt 0.021841 0.128434
vt 0.072848 0.128434
vt 0.047345 0.146963
vt 0.260531 0.528713
vt 0.082561 0.749498
vt 0.082561 0.719244
vt 0.291339 0.528713
vt 0.260531 0.591023
vt 0.082561 0.779753
vt 0.469309 0.840262
vt 0.469309 0.848405
vt 0.291339 0.848405
vt 0.291339 0.777952
vt 0.260531 0.848405
vt 0.260531 0.777952
vt 0.082561 0.848405
vt 0.082561 0.840262
vt 0.260531 0.715642
vt 0.082561 0.810007
vt 0.260531 0.653333
vt 0.291339 0.591023
vt 0.469309 0.719244
vt 0.469309 0.666878
vt 0.291339 0.474546
vt 0.260531 0.474546
vt 0.082561 0.666878
vt 0.469309 0.749498
vt 0.291339 0.653333
vt 0.291339 0.715642
vt 0.469309 0.810007
vt 0.469309 0.779753
vt 0.296356 0.849554
vt 0.532295 0.960552
vt 0.532295 0.849554
vt 0.296356 0.960552
vt 0.255514 0.849554
vt 0.255514 0.960552
vt 0.019575 0.849554
vt 0.019575 0.960552
vt 0.064635 0.014086
vt 0.074156 0.020339
vt 0.075790 0.018706
vt 0.064635 0.016396
vt 0.034975 0.016396
vt 0.034975 0.021973
vt 0.070212 0.024283
vt 0.064635 0.021973
vt 0.034975 0.027550
vt 0.033342 0.028227
vt 0.029398 0.024283
vt 0.025454 0.020339
vt 0.034975 0.014086
vt 0.080410 0.029860
vt 0.078100 0.029860
vt 0.072523 0.029860
vt 0.066945 0.029860
vt 0.066269 0.028227
vt 0.064635 0.027550
vt 0.034975 0.029860
vt 0.032665 0.029860
vt 0.027088 0.029860
vt 0.021511 0.029860
vt 0.023821 0.018706
vt 0.078100 0.064557
vt 0.080410 0.064557
vt 0.072523 0.064557
vt 0.066945 0.064557
vt 0.064635 0.029860
vt 0.064635 0.064557
vt 0.019201 0.029860
vt 0.019201 0.064557
vt 0.021511 0.064557
vt 0.027088 0.064557
vt 0.032665 0.064557
vt 0.034975 0.064557
vt 0.426867 0.604592
vt 0.397553 0.667513
vt 0.397553 0.604592
vt 0.426867 0.667513
vt 0.397553 0.703866
vt 0.426867 0.703866
vt 0.397553 0.740219
vt 0.426867 0.740219
vt 0.397553 0.776572
vt 0.426867 0.776572
vt 0.397553 0.812925
vt 0.426867 0.812925
vt 0.397553 0.822710
vt 0.426867 0.822710
vt 0.663123 0.456782
vt 0.571722 0.729740
vt 0.192478 0.454203
vt 0.480321 0.456782
vt 0.291277 0.672333
vt 0.468931 0.696687
vt 0.291277 0.696687
vt 0.468931 0.672333
vt 0.392779 0.824090
vt 0.431641 0.824090
vt 0.534221 0.954054
vt 0.296928 0.856074
vt 0.534221 0.856074
vt 0.296928 0.954054
vt 0.255851 0.856074
vt 0.255851 0.954054
vt 0.018557 0.856074
vt 0.018557 0.954054
vt 0.337337 0.008375
vt 0.423832 0.282927
vt 0.392779 0.957462
vt 0.431641 0.957462
vt 0.571722 0.175478
s 1
usemtl medalfancy
f 1/1/1 2/2/1 3/3/1
f 1/1/1 4/4/1 2/2/1
f 5/5/2 6/6/3 7/7/4
f 6/6/3 8/8/5 7/7/4
f 8/8/5 9/9/6 7/7/4
f 7/7/4 9/9/6 10/10/7
f 11/11/8 12/12/8 13/13/8
f 13/13/8 9/9/8 8/8/8
f 8/8/8 6/6/8 13/13/8
f 13/13/8 6/6/8 14/14/8
f 14/14/8 15/15/8 13/13/8
f 15/15/8 11/11/8 13/13/8
f 15/15/8 16/16/8 11/11/8
f 14/14/8 17/17/8 15/15/8
f 18/18/9 19/19/9 20/20/9
f 7/21/9 10/22/9 18/18/9
f 7/21/9 18/18/9 21/23/9
f 20/20/9 21/23/9 18/18/9
f 20/20/9 22/24/9 21/23/9
f 20/20/9 23/25/9 22/24/9
f 21/23/9 5/26/9 7/21/9
f 22/24/9 24/27/9 21/23/9
f 25/28/8 26/29/8 27/30/8
f 28/31/8 29/32/8 25/28/8
f 25/28/8 29/32/8 26/29/8
f 29/32/8 30/33/8 26/29/8
f 31/34/8 32/35/8 33/36/8
f 31/34/8 33/36/8 34/37/8
f 34/37/8 33/36/8 35/38/8
f 34/37/8 35/38/8 36/39/8
f 36/39/8 35/38/8 37/40/8
f 36/39/8 37/40/8 38/41/8
f 39/42/8 36/39/8 38/41/8
f 39/42/8 38/41/8 40/43/8
f 41/44/8 39/42/8 40/43/8
f 41/44/8 40/43/8 30/33/8
f 29/32/8 41/44/8 30/33/8
f 42/45/8 41/44/8 29/32/8
f 28/31/8 42/45/8 29/32/8
f 43/46/8 42/45/8 28/31/8
f 44/47/8 43/46/8 28/31/8
f 44/47/8 28/31/8 45/48/8
f 45/48/8 28/31/8 25/28/8
f 45/48/8 25/28/8 2/49/8
f 2/49/8 25/28/8 27/30/8
f 2/49/8 27/30/8 3/50/8
f 43/46/8 46/51/8 42/45/8
f 46/51/8 47/52/8 42/45/8
f 42/45/8 47/52/8 41/44/8
f 47/52/8 39/42/8 41/44/8
f 47/52/8 48/53/8 39/42/8
f 48/53/8 36/39/8 39/42/8
f 48/53/8 34/37/8 36/39/8
f 49/54/8 34/37/8 48/53/8
f 49/54/8 31/34/8 34/37/8
f 46/51/8 50/55/8 47/52/8
f 50/55/8 48/53/8 47/52/8
f 50/55/8 49/54/8 48/53/8
f 51/48/9 52/46/9 53/47/9
f 54/37/9 55/36/9 56/35/9
f 54/37/9 56/35/9 57/34/9
f 58/53/9 54/37/9 57/34/9
f 58/53/9 57/34/9 59/54/9
f 60/52/9 58/53/9 59/54/9
f 60/52/9 59/54/9 61/55/9
f 62/45/9 60/52/9 61/55/9
f 62/45/9 61/55/9 63/51/9
f 64/31/9 62/45/9 63/51/9
f 64/31/9 63/51/9 52/46/9
f 51/48/9 64/31/9 52/46/9
f 4/49/9 64/31/9 51/48/9
f 4/49/9 65/28/9 64/31/9
f 1/50/9 65/28/9 4/49/9
f 1/50/9 66/30/9 65/28/9
f 66/30/9 67/32/9 65/28/9
f 66/30/9 68/29/9 67/32/9
f 68/29/9 69/44/9 67/32/9
f 65/28/9 62/45/9 64/31/9
f 65/28/9 67/32/9 62/45/9
f 67/32/9 60/52/9 62/45/9
f 67/32/9 69/44/9 60/52/9
f 69/44/9 58/53/9 60/52/9
f 69/44/9 70/42/9 58/53/9
f 70/42/9 54/37/9 58/53/9
f 70/42/9 71/39/9 54/37/9
f 71/39/9 55/36/9 54/37/9
f 71/39/9 72/38/9 55/36/9
f 68/29/9 73/33/9 69/44/9
f 73/33/9 70/42/9 69/44/9
f 73/33/9 74/43/9 70/42/9
f 74/43/9 71/39/9 70/42/9
f 74/43/9 75/41/9 71/39/9
f 75/41/9 72/38/9 71/39/9
f 75/41/9 76/40/9 72/38/9
f 77/56/9 78/57/9 79/58/9
f 77/56/9 80/59/9 78/57/9
f 81/60/9 80/59/9 77/56/9
f 81/60/9 82/61/9 80/59/9
f 83/62/9 82/61/9 81/60/9
f 83/62/9 84/63/9 82/61/9
f 85/64/10 86/65/11 87/66/12
f 85/64/10 88/67/13 86/65/11
f 85/64/10 89/68/14 88/67/13
f 88/67/13 89/68/14 90/69/15
f 88/67/13 91/70/16 86/65/11
f 88/67/13 92/71/17 91/70/16
f 88/67/13 90/69/15 92/71/17
f 92/71/17 90/69/15 93/72/18
f 90/69/15 94/73/19 93/72/18
f 90/69/15 95/74/20 94/73/19
f 89/68/14 95/74/20 90/69/15
f 89/68/14 96/75/21 95/74/20
f 97/76/22 96/75/21 89/68/14
f 85/64/10 97/76/22 89/68/14
f 98/67/23 97/76/22 85/64/10
f 98/67/23 85/64/10 87/66/12
f 98/67/23 87/66/12 99/65/24
f 99/65/24 87/66/12 100/77/25
f 99/65/24 100/77/25 101/78/26
f 87/66/12 102/78/27 100/77/25
f 87/66/12 86/65/11 102/78/27
f 86/65/11 103/79/28 102/78/27
f 86/65/11 91/70/16 103/79/28
f 91/70/16 104/80/29 103/79/28
f 91/70/16 105/81/30 104/80/29
f 92/71/17 105/81/30 91/70/16
f 92/71/17 106/82/31 105/81/30
f 92/71/17 93/72/18 106/82/31
f 106/82/31 93/72/18 107/83/32
f 93/72/18 94/73/19 107/83/32
f 94/73/19 108/84/33 107/83/32
f 95/74/20 108/84/33 94/73/19
f 95/74/20 109/85/34 108/84/33
f 96/75/21 109/85/34 95/74/20
f 96/75/21 110/86/35 109/85/34
f 111/87/36 110/86/35 96/75/21
f 97/76/22 111/87/36 96/75/21
f 112/68/37 111/87/36 97/76/22
f 98/67/23 112/68/37 97/76/22
f 113/71/38 112/68/37 98/67/23
f 113/71/38 98/67/23 99/65/24
f 113/71/38 99/65/24 114/70/39
f 114/70/39 99/65/24 101/78/26
f 114/70/39 101/78/26 115/79/40
f 100/77/25 102/78/27 116/88/41
f 100/77/25 116/88/41 117/89/42
f 101/78/26 100/77/25 117/89/42
f 101/78/26 117/89/42 118/88/43
f 115/79/40 101/78/26 118/88/43
f 115/79/40 118/88/43 119/90/8
f 112/68/37 120/75/44 111/87/36
f 121/69/45 120/75/44 112/68/37
f 113/71/38 121/69/45 112/68/37
f 122/82/46 121/69/45 113/71/38
f 122/82/46 113/71/38 114/70/39
f 122/82/46 114/70/39 123/81/47
f 123/81/47 114/70/39 115/79/40
f 123/81/47 115/79/40 124/80/48
f 124/80/48 115/79/40 119/90/8
f 124/80/48 119/90/8 125/91/49
f 126/92/50 124/80/48 125/91/49
f 126/92/50 125/91/49 127/93/51
f 104/80/29 126/92/50 127/93/51
f 104/80/29 127/93/51 128/91/52
f 103/79/28 104/80/29 128/91/52
f 103/79/28 128/91/52 129/90/9
f 102/78/27 103/79/28 129/90/9
f 102/78/27 129/90/9 116/88/41
f 126/92/50 123/81/47 124/80/48
f 126/92/50 122/82/46 123/81/47
f 126/92/50 130/72/53 122/82/46
f 122/82/46 130/72/53 121/69/45
f 130/72/53 131/74/54 121/69/45
f 121/69/45 131/74/54 120/75/44
f 105/81/30 126/92/50 104/80/29
f 106/82/31 126/92/50 105/81/30
f 106/82/31 107/83/32 126/92/50
f 126/92/50 107/83/32 130/72/53
f 107/83/32 132/73/55 130/72/53
f 130/72/53 132/73/55 131/74/54
f 132/73/55 133/85/56 131/74/54
f 131/74/54 133/85/56 134/86/57
f 131/74/54 134/86/57 120/75/44
f 120/75/44 134/86/57 135/94/58
f 132/73/55 136/84/59 133/85/56
f 107/83/32 136/84/59 132/73/55
f 135/94/58 137/95/51 138/96/52
f 134/86/57 137/95/51 135/94/58
f 134/86/57 139/96/49 137/95/51
f 133/85/56 139/96/49 134/86/57
f 133/85/56 140/97/8 139/96/49
f 136/84/59 140/97/8 133/85/56
f 136/84/59 141/98/43 140/97/8
f 107/83/32 141/98/43 136/84/59
f 107/83/32 142/99/42 141/98/43
f 108/84/33 142/99/42 107/83/32
f 108/84/33 143/98/41 142/99/42
f 109/85/34 143/98/41 108/84/33
f 109/85/34 144/97/9 143/98/41
f 110/86/35 144/97/9 109/85/34
f 110/86/35 138/96/52 144/97/9
f 135/94/58 138/96/52 110/86/35
f 111/87/36 135/94/58 110/86/35
f 120/75/44 135/94/58 111/87/36
f 53/100/42 43/101/42 44/102/42
f 53/100/42 52/103/42 43/101/42
f 52/103/42 46/104/42 43/101/42
f 52/103/42 63/105/42 46/104/42
f 63/105/42 50/106/42 46/104/42
f 63/105/42 61/107/42 50/106/42
f 61/107/42 49/108/42 50/106/42
f 61/107/42 59/109/42 49/108/42
f 59/109/42 31/110/42 49/108/42
f 59/109/42 57/111/42 31/110/42
f 57/111/42 32/112/42 31/110/42
f 57/111/42 56/113/42 32/112/42
f 37/40/60 145/60/60 146/62/60
f 37/40/60 35/38/60 145/60/60
f 35/38/60 147/56/60 145/60/60
f 35/38/60 33/36/60 147/56/60
f 33/36/60 148/58/60 147/56/60
f 33/36/60 32/35/60 148/58/60
f 21/114/61 24/115/62 17/17/63
f 14/14/64 21/114/61 17/17/63
f 14/14/64 6/6/65 21/114/61
f 21/114/61 6/6/65 5/5/66
f 23/116/67 16/16/68 22/117/69
f 15/15/70 22/117/69 16/16/68
f 15/15/70 17/17/71 22/117/69
f 22/117/69 17/17/71 24/115/72
f 51/118/73 44/119/73 45/120/73
f 51/118/73 53/121/73 44/119/73
f 76/113/74 146/122/74 83/123/74
f 76/113/74 37/112/74 146/122/74
f 78/124/75 149/125/75 150/126/75
f 78/124/75 80/127/75 149/125/75
f 80/127/75 151/128/75 149/125/75
f 80/127/75 82/129/75 151/128/75
f 82/129/75 152/130/75 151/128/75
f 82/129/75 84/131/75 152/130/75
f 145/60/8 152/63/8 146/62/8
f 145/60/8 151/61/8 152/63/8
f 147/56/8 151/61/8 145/60/8
f 147/56/8 149/59/8 151/61/8
f 148/58/8 149/59/8 147/56/8
f 148/58/8 150/57/8 149/59/8
f 19/132/76 12/12/77 20/133/78
f 11/11/79 20/133/78 12/12/77
f 11/11/79 16/16/80 20/133/78
f 20/133/78 16/16/80 23/116/81
f 79/123/42 150/134/42 148/122/42
f 79/123/42 78/135/42 150/134/42
f 146/122/51 84/135/51 83/123/51
f 146/122/51 152/134/51 84/135/51
f 3/102/51 66/103/51 1/100/51
f 3/102/51 27/101/51 66/103/51
f 27/101/51 68/105/51 66/103/51
f 27/101/51 26/104/51 68/105/51
f 26/104/51 73/107/51 68/105/51
f 26/104/51 30/106/51 73/107/51
f 30/106/51 74/109/51 73/107/51
f 30/106/51 40/108/51 74/109/51
f 40/108/51 75/111/51 74/109/51
f 40/108/51 38/110/51 75/111/51
f 38/110/51 76/113/51 75/111/51
f 38/110/51 37/112/51 76/113/51
f 32/112/82 79/123/82 148/122/82
f 32/112/82 56/113/82 79/123/82
f 56/35/83 77/56/83 79/58/83
f 56/35/83 55/36/83 77/56/83
f 55/36/83 81/60/83 77/56/83
f 55/36/83 72/38/83 81/60/83
f 72/38/83 83/62/83 81/60/83
f 72/38/83 76/40/83 83/62/83
f 4/4/84 45/120/84 2/2/84
f 4/4/84 51/118/84 45/120/84
f 10/10/85 9/9/86 18/136/87
f 13/13/88 18/136/87 9/9/86
f 13/13/88 12/12/89 18/136/87
f 18/136/87 12/12/89 19/132/90
